# xmcd
#
# Track frame offsets:
#  150
#  13323
#  27872
#  50373
#  62204
#  75753
#  88454
#  101523
#  120396
#  131861
#  148638
#  171699
#
# Disc length: 2536 seconds
#
# Revision: 1
# Processed by: cddbd v1.5.1PL2 Copyright (c) Steve Scherf et al.
# Submitted via: Collectorz.com_Music_Collector 6.9
#
DISCID=a609e60c
DTITLE=Sky Tune - Late December
DYEAR=2005
DGENRE=Country general
TTITLE0=South Of Round Rock Texas
TTITLE1=Love Trip
TTITLE2=Late December
TTITLE3=Drinking You Out Of My Mind
TTITLE4=Still Crazy About You
TTITLE5=If You Talk To My Baby
TTITLE6=Honky Tonk Down Stairs
TTITLE7=Dead Flowers
TTITLE8=Some Days You Gotta Dance
TTITLE9=Poisoned At The Well
TTITLE10=Mystery Train
TTITLE11=Real Like That
EXTD=
EXTT0=
EXTT1=
EXTT2=
EXTT3=
EXTT4=
EXTT5=
EXTT6=
EXTT7=
EXTT8=
EXTT9=
EXTT10=
EXTT11=
PLAYORDER=
